<svg width="49" height="48" viewBox="0 0 49 48" fill="none" xmlns="http://www.w3.org/2000/svg">
<g clip-path="url(#clip0)">
<g clip-path="url(#clip1)">
<path d="M24.8406 22.8022C29.1448 22.8022 32.4925 19.3069 32.4925 15.0171C32.4925 10.7273 28.9854 7.39087 24.6812 7.39087C20.377 7.39087 17.0293 10.8862 17.0293 15.0171C17.0293 19.3069 20.5364 22.8022 24.8406 22.8022ZM24.6812 10.5685C24.8406 10.5685 24.8406 10.5685 24.6812 10.5685C27.2318 10.5685 29.3042 12.6339 29.3042 15.176C29.3042 17.7181 27.2318 19.6246 24.6812 19.6246C22.1306 19.6246 20.2176 17.5592 20.2176 15.176C20.2176 12.6339 22.29 10.5685 24.6812 10.5685V10.5685Z" fill="#00A0C1"/>
<path d="M48.434 21.8487C45.4051 19.1477 41.4198 17.7178 37.275 17.8767H35.9997C35.6808 19.1477 35.2026 20.2599 34.5649 21.2132C35.5214 21.0543 36.3185 21.0543 37.275 21.0543C40.3039 20.8954 43.3327 21.8487 45.724 23.5964V35.0357H48.9123V22.3253L48.434 21.8487Z" fill="#00A0C1"/>
<path d="M33.6083 7.70826C34.4053 5.8017 36.6371 4.84842 38.7095 5.64282C40.6225 6.43722 41.579 8.66154 40.7819 10.727C40.1443 12.1569 38.7095 13.1102 37.2748 13.1102C36.956 13.1102 36.4777 13.1102 36.1589 12.9513C36.3183 13.7457 36.3183 14.5401 36.3183 15.1756V16.1289C36.6371 16.1289 36.956 16.2878 37.2748 16.2878C41.2602 16.2878 44.4485 13.1102 44.4485 9.29706C44.4485 5.32506 41.2602 2.14746 37.4342 2.14746C34.8836 2.14746 32.6518 3.4185 31.3765 5.64282C32.1735 6.11946 32.9706 6.75498 33.6083 7.70826V7.70826Z" fill="#00A0C1"/>
<path d="M15.4352 21.3721C14.7975 20.4189 14.3193 19.3067 14.0005 18.0357H12.7252C8.58037 17.8768 4.59501 19.3067 1.56613 21.8488L1.08789 22.3254V35.0358H4.27618V23.5965C6.82681 21.8488 9.69628 20.8955 12.7252 21.0544C13.6816 21.0544 14.6381 21.2133 15.4352 21.3721Z" fill="#00A0C1"/>
<path d="M12.7251 16.1293C13.044 16.1293 13.3628 16.1293 13.6816 15.9704V15.0171C13.6816 14.2227 13.6816 13.4283 13.841 12.7928C13.5222 12.9517 13.044 12.9517 12.7251 12.9517C10.6527 12.9517 8.89917 11.204 8.89917 9.13856C8.89917 7.07312 10.6527 5.32544 12.7251 5.32544C14.3193 5.32544 15.754 6.27872 16.3917 7.70864C17.0293 6.91424 17.9858 6.11984 18.7829 5.48432C16.7105 2.14784 12.4063 1.03568 9.05859 3.10112C5.71088 5.16656 4.59498 9.45632 6.66737 12.7928C7.94269 14.8582 10.1745 16.1293 12.7251 16.1293V16.1293Z" fill="#00A0C1"/>
<path d="M37.9128 31.3815L37.594 30.9049C34.4057 27.4095 29.9421 25.3441 25.1596 25.5029C20.3772 25.3441 15.7542 27.4095 12.5659 30.9049L12.2471 31.3815V43.4564C12.2471 44.8863 13.363 46.1573 14.9571 46.1573H35.3622C36.7969 46.1573 38.0722 44.8863 38.0722 43.4564V31.3815H37.9128ZM34.7245 42.9797H15.4354V32.4936C17.986 29.9516 21.4931 28.6805 25.1596 28.6805C28.6668 28.5217 32.1739 29.9516 34.7245 32.4936V42.9797Z" fill="#00A0C1"/>
</g>
</g>
<defs>
<clipPath id="clip0">
<rect width="48" height="48" fill="white" transform="translate(0.5)"/>
</clipPath>
<clipPath id="clip1">
<rect width="48" height="44.2105" fill="white" transform="translate(1 2)"/>
</clipPath>
</defs>
</svg>
