<svg width="49" height="48" viewBox="0 0 49 48" fill="none" xmlns="http://www.w3.org/2000/svg">
<g clip-path="url(#clip0)">
<path d="M44.1501 22.2822C43.5746 22.2864 43.0045 22.3962 42.4673 22.6064L36.727 17.8217C36.8682 17.3001 36.9687 16.7589 36.9687 16.1886C36.9687 12.8103 34.3021 10.095 30.9843 10.095C27.6665 10.095 24.9998 12.8103 24.9998 16.1886C24.9998 17.1538 25.2392 18.0532 25.627 18.8625L18.6635 27.2424C18.3848 27.1893 18.102 27.1607 17.8185 27.1571C17.39 27.1571 16.9855 27.2302 16.5929 27.3374L10.4576 21.0903C10.5653 20.693 10.6371 20.281 10.6371 19.8447C10.6371 17.1441 8.50189 14.9699 5.84958 14.9699C3.19727 14.9699 1.06201 17.1441 1.06201 19.8447C1.06201 22.5454 3.19727 24.7196 5.84958 24.7196C6.27806 24.7196 6.68261 24.6465 7.07519 24.5393L13.2105 30.7864C13.0954 31.1914 13.035 31.6104 13.0309 32.032C13.0309 34.7327 15.1662 36.9069 17.8185 36.9069C20.4708 36.9069 22.6061 34.7327 22.6061 32.032C22.6061 31.4543 22.4912 30.9107 22.3116 30.3964L29.2847 22.0068C29.8281 22.1676 30.3906 22.2822 30.9843 22.2822C31.929 22.2769 32.8588 22.0421 33.6964 21.5973L39.4391 26.382C39.3941 26.638 39.3685 26.8971 39.3625 27.1571C39.3625 29.8578 41.4978 32.032 44.1501 32.032C46.8024 32.032 48.9377 29.8578 48.9377 27.1571C48.9377 24.4564 46.8024 22.2822 44.1501 22.2822Z" fill="#00A0C1"/>
</g>
<defs>
<clipPath id="clip0">
<rect width="48" height="48" fill="white" transform="translate(0.5)"/>
</clipPath>
</defs>
</svg>
