<svg width="24" height="24" viewBox="0 0 24 24" fill="none" xmlns="http://www.w3.org/2000/svg">
<path d="M12.0018 5.84744C8.59677 5.84744 5.84877 8.59544 5.84877 12.0004C5.84877 15.4054 8.59677 18.1534 12.0018 18.1534C15.4068 18.1534 18.1548 15.4054 18.1548 12.0004C18.1548 8.59544 15.4068 5.84744 12.0018 5.84744ZM12.0018 15.9994C9.79977 15.9994 8.00277 14.2024 8.00277 12.0004C8.00277 9.79844 9.79977 8.00144 12.0018 8.00144C14.2038 8.00144 16.0008 9.79844 16.0008 12.0004C16.0008 14.2024 14.2038 15.9994 12.0018 15.9994ZM18.4068 4.16144C17.6118 4.16144 16.9698 4.80344 16.9698 5.59844C16.9698 6.39344 17.6118 7.03544 18.4068 7.03544C19.2018 7.03544 19.8438 6.39644 19.8438 5.59844C19.844 5.40966 19.807 5.22269 19.7349 5.04824C19.6627 4.87379 19.5569 4.71528 19.4234 4.5818C19.2899 4.44831 19.1314 4.34247 18.957 4.27034C18.7825 4.19821 18.5955 4.1612 18.4068 4.16144ZM23.9958 12.0004C23.9958 10.3444 24.0108 8.70344 23.9178 7.05044C23.8248 5.13044 23.3868 3.42644 21.9828 2.02244C20.5758 0.615437 18.8748 0.180437 16.9548 0.0874372C15.2988 -0.00556279 13.6578 0.00943725 12.0048 0.00943725C10.3488 0.00943725 8.70777 -0.00556279 7.05477 0.0874372C5.13477 0.180437 3.43077 0.618437 2.02677 2.02244C0.619771 3.42944 0.184771 5.13044 0.0917707 7.05044C-0.00122929 8.70644 0.0137708 10.3474 0.0137708 12.0004C0.0137708 13.6534 -0.00122929 15.2974 0.0917707 16.9504C0.184771 18.8704 0.622771 20.5744 2.02677 21.9784C3.43377 23.3854 5.13477 23.8204 7.05477 23.9134C8.71077 24.0064 10.3518 23.9914 12.0048 23.9914C13.6608 23.9914 15.3018 24.0064 16.9548 23.9134C18.8748 23.8204 20.5788 23.3824 21.9828 21.9784C23.3898 20.5714 23.8248 18.8704 23.9178 16.9504C24.0138 15.2974 23.9958 13.6564 23.9958 12.0004ZM21.3558 19.0744C21.1368 19.6204 20.8728 20.0284 20.4498 20.4484C20.0268 20.8714 19.6218 21.1354 19.0758 21.3544C17.4978 21.9814 13.7508 21.8404 12.0018 21.8404C10.2528 21.8404 6.50277 21.9814 4.92477 21.3574C4.37877 21.1384 3.97077 20.8744 3.55077 20.4514C3.12777 20.0284 2.86377 19.6234 2.64477 19.0774C2.02077 17.4964 2.16177 13.7494 2.16177 12.0004C2.16177 10.2514 2.02077 6.50144 2.64477 4.92344C2.86377 4.37744 3.12777 3.96944 3.55077 3.54944C3.97377 3.12944 4.37877 2.86244 4.92477 2.64344C6.50277 2.01944 10.2528 2.16044 12.0018 2.16044C13.7508 2.16044 17.5008 2.01944 19.0788 2.64344C19.6248 2.86244 20.0328 3.12644 20.4528 3.54944C20.8758 3.97244 21.1398 4.37744 21.3588 4.92344C21.9828 6.50144 21.8418 10.2514 21.8418 12.0004C21.8418 13.7494 21.9828 17.4964 21.3558 19.0744Z" fill="#E61F5A"/>
</svg>
