<svg width="105" height="63" viewBox="0 0 105 63" fill="none" xmlns="http://www.w3.org/2000/svg">
<path d="M29.8871 22.9886C29.7705 26.6267 31.6043 28.2378 31.6496 29.2609C31.628 29.4692 31.5565 29.6693 31.4409 29.8445C31.3254 30.0197 31.1692 30.1649 30.9855 30.268L28.9119 31.7072C28.6436 31.8937 28.3273 32.0007 27.9999 32.0156C27.9303 32.0124 26.6732 32.3095 24.6823 27.9021C23.4676 29.4054 21.9222 30.6133 20.1642 31.4332C18.4062 32.2531 16.4823 32.6633 14.5398 32.6324C11.9026 32.7753 4.75542 31.1482 5.12315 23.6038C4.86558 17.4552 10.6407 13.6356 16.6134 13.9585C17.7635 13.9617 20.1124 14.0179 24.2255 14.9656V12.4567C24.6612 8.20662 21.8441 4.90905 16.9665 5.40377C16.5777 5.40537 13.8238 5.32346 9.54072 7.02765C8.34845 7.57055 8.19617 7.48061 7.79929 7.48061C6.59891 7.48061 7.09299 4.03045 7.32302 3.59356C8.16701 2.56558 13.1321 0.64615 18.0049 0.673455C21.263 0.387753 24.5036 1.38477 27.0263 3.449C28.0518 4.58633 28.8341 5.91795 29.3261 7.36344C29.8181 8.80892 30.0095 10.3383 29.8888 11.8592L29.8871 22.9886ZM15.8876 28.1912C21.1411 28.1157 23.3653 24.9836 23.8723 23.297C24.2708 21.6828 24.2044 20.6612 24.2044 18.896C22.6379 18.5234 20.383 18.117 17.7959 18.1138C15.3417 17.9307 10.8593 19.0181 11.0343 23.2954C10.8334 25.9923 12.8357 28.3389 15.8876 28.1912ZM43.5756 31.8935C42.3023 32.0092 41.7094 31.1129 41.5215 30.2279L33.4542 3.78149C33.2971 3.33496 33.1934 2.87397 33.1432 2.40335C33.1135 2.20933 33.1626 2.01152 33.2798 1.8534C33.3971 1.69528 33.5729 1.58979 33.7685 1.56009C33.8074 1.55366 33.4235 1.56009 37.3729 1.56009C38.7952 1.41874 39.2585 2.52864 39.4059 3.22574L45.1923 25.8461L50.564 3.22574C50.6499 2.70853 51.0403 1.44765 52.6375 1.58097H55.4174C55.7689 1.55206 57.2171 1.50066 57.4714 3.24662L62.8853 26.1561L68.858 3.24662C68.9357 2.89646 69.2986 1.42035 70.9121 1.58097H74.1066C74.2443 1.56009 75.1028 1.45086 74.957 2.9591C74.8874 3.25625 75.5094 1.24688 66.4119 30.2487C66.2256 31.1338 65.6311 32.03 64.3578 31.9144H61.3301C59.5579 32.0991 59.3036 30.3628 59.276 30.1877L53.9043 8.16164L48.5942 30.1652C48.5683 30.3403 48.3139 32.0766 46.5401 31.8919H43.5756V31.8935ZM87.8777 32.7978C86.9251 32.7994 82.3828 32.7496 78.5857 30.8238C78.2075 30.665 77.8853 30.3984 77.66 30.0578C77.4348 29.7172 77.3166 29.318 77.3205 28.9108V27.1841C77.3205 25.8268 78.3249 26.0758 78.7509 26.238C80.3773 26.8901 81.4206 27.3849 83.418 27.78C89.355 28.9895 91.9664 27.4106 92.6063 27.0604C94.7365 25.8059 94.905 22.9356 93.4567 21.4467C91.759 20.0348 90.9491 19.9818 84.85 18.0736C84.0984 17.8664 77.7709 15.8875 77.7563 9.66346C77.6575 5.1275 81.8142 0.639724 89.0181 0.676667C91.0706 0.675061 96.5395 1.34004 98.0201 3.18558C98.2388 3.52128 98.3473 3.91641 98.3311 4.31636V5.94024C98.3311 6.6534 98.0687 7.00998 97.5422 7.00998C96.2932 6.87185 94.0772 5.21584 89.5786 5.2833C88.4625 5.22548 83.1167 5.42947 83.3564 9.29403C83.2868 12.3394 87.6671 13.4814 88.1676 13.6131C94.0739 15.3752 96.0486 15.6675 98.3927 18.3643C101.169 21.9382 99.6724 26.1224 99.0974 27.2692C96.0065 33.2909 88.0137 32.801 87.8777 32.7978ZM94.3898 49.6406C83.0454 57.948 66.5771 62.3699 52.516 62.3699C33.5434 62.4939 15.2102 55.5767 1.12028 42.978C0.062465 42.032 0.995549 40.7357 2.28178 41.4569C17.9117 50.3219 35.608 54.9798 53.6144 54.9684C67.061 54.8969 80.361 52.1922 92.7504 47.0096C94.6587 46.2065 96.277 48.2625 94.3898 49.6406ZM99.1184 44.2935C97.6669 42.4431 89.5154 43.4294 85.8657 43.8614C84.7658 43.9851 84.5795 43.0391 85.5757 42.3403C92.0668 37.8156 102.728 39.1118 103.952 40.6329C105.175 42.154 103.62 52.7454 97.5438 57.805C96.6107 58.5872 95.7182 58.1744 96.1329 57.1465C97.5001 53.7333 100.57 46.1455 99.1184 44.2935Z" fill="#737373"/>
</svg>
