<svg width="48" height="38" viewBox="0 0 48 38" fill="none" xmlns="http://www.w3.org/2000/svg">
<path d="M44.5679 0.0111084H3.43234C2.52347 0.0120205 1.65208 0.375302 1.00941 1.02123C0.366737 1.66715 0.00528678 2.54295 0.00437927 3.45643V34.4643C0.00528678 35.3778 0.366737 36.2536 1.00941 36.8995C1.65208 37.5454 2.52347 37.9087 3.43234 37.9096H44.5679C45.4766 37.9082 46.3477 37.5448 46.9903 36.899C47.6329 36.2532 47.9945 35.3776 47.9958 34.4643V3.45643C47.9949 2.54295 47.6335 1.66715 46.9908 1.02123C46.3481 0.375302 45.4767 0.0120205 44.5679 0.0111084ZM3.43234 3.45643H22.2861V34.4643H3.43234V3.45643ZM25.7141 34.4643V3.45643H44.5679L44.5713 34.4643H25.7141Z" fill="white"/>
</svg>
