<svg width="24" height="31" viewBox="0 0 24 31" fill="none" xmlns="http://www.w3.org/2000/svg">
<path d="M11.13 29.9707C11.3839 30.152 11.688 30.2494 12 30.2494C12.312 30.2494 12.6161 30.152 12.87 29.9707C13.326 29.6482 24.0434 21.9098 23.9999 12.2499C23.9999 5.63344 18.6164 0.25 12 0.25C5.38357 0.25 0.000132055 5.63344 0.000132055 12.2424C-0.0433675 21.9098 10.674 29.6482 11.13 29.9707ZM12 3.24997C16.9634 3.24997 20.9999 7.28642 20.9999 12.2574C21.0314 18.9143 14.418 24.8917 12 26.8522C9.58353 24.8902 2.9686 18.9113 3.0001 12.2499C3.0001 7.28642 7.03655 3.24997 12 3.24997Z" fill="#8EC2F2"/>
</svg>
