<svg width="24" height="26" viewBox="0 0 24 26" fill="none" xmlns="http://www.w3.org/2000/svg">
<path d="M23.71 1.21646C23.575 1.07676 23.4045 0.980035 23.2185 0.937662C23.0325 0.895288 22.8388 0.909025 22.66 0.977258L0.660001 9.29726C0.470269 9.3721 0.306921 9.50521 0.191652 9.67889C0.0763829 9.85257 0.0146484 10.0586 0.0146484 10.2697C0.0146484 10.4807 0.0763829 10.6867 0.191652 10.8604C0.306921 11.0341 0.470269 11.1672 0.660001 11.2421L10.26 15.2357L14.1 25.2197C14.1721 25.4083 14.2958 25.5709 14.4557 25.6873C14.6157 25.8037 14.8049 25.8689 15 25.8749C15.2021 25.8705 15.3982 25.8026 15.5624 25.6801C15.7266 25.5576 15.8513 25.3862 15.92 25.1885L23.92 2.30846C23.9881 2.12446 24.0046 1.92411 23.9674 1.73076C23.9302 1.53742 23.8409 1.35905 23.71 1.21646ZM15 21.9229L12.21 14.6429L17 9.66126L15.59 8.19486L10.76 13.2181L3.8 10.2749L21.33 3.69166L15 21.9229Z" fill="#8EC2F2"/>
</svg>
