<svg width="48" height="38" viewBox="0 0 48 38" fill="none" xmlns="http://www.w3.org/2000/svg">
<path d="M44.5635 0H3.42796C2.51909 0.000912108 1.6477 0.364193 1.00503 1.01012C0.362358 1.65604 0.000907512 2.53184 0 3.44532V34.4532C0.000907512 35.3667 0.362358 36.2425 1.00503 36.8884C1.6477 37.5343 2.51909 37.8976 3.42796 37.8985H44.5635C45.4722 37.8971 46.3433 37.5337 46.9859 36.8879C47.6285 36.2421 47.9901 35.3665 47.9914 34.4532V3.44532C47.9905 2.53184 47.6291 1.65604 46.9864 1.01012C46.3437 0.364193 45.4724 0.000912108 44.5635 0ZM3.42796 3.44532H22.2817V34.4532H3.42796V3.44532ZM25.7097 34.4532V3.44532H44.5635L44.5669 34.4532H25.7097Z" fill="#00A0C1"/>
</svg>
