<svg width="103" height="35" viewBox="0 0 103 35" fill="none" xmlns="http://www.w3.org/2000/svg">
<path d="M23.2554 32.4249L29.4193 32.5526C27.2949 31.8183 25.2349 30.9244 23.2554 29.8709V32.4249ZM32.5415 31.5789V32.4249L29.4193 32.5526C35.2935 34.5479 40.6688 34.8193 44.6601 33.7019C41.4574 33.7338 37.2892 33.2869 32.5415 31.5789ZM98.3488 13.1901C100.908 13.1901 103 11.131 103 8.577C103 6.02301 100.924 4.6662 98.3488 4.6662C95.7899 4.6662 93.6977 6.03897 93.6977 8.577C93.6977 11.115 95.7738 13.1901 98.3488 13.1901ZM93.6816 32.4249H103V14.7864H93.6816V32.4249ZM81.8206 32.4249H91.1388V1.25024L81.8206 5.60799V32.4249ZM76.8315 13.3657C73.9024 10.4606 68.7202 10.6362 68.7202 10.6362C68.7202 10.6362 63.522 10.4606 60.609 13.3657C57.6799 16.2709 57.9052 18.777 57.9052 21.762C57.9052 24.747 57.6799 27.2371 60.609 30.1423C63.5381 33.0474 68.7202 32.8718 68.7202 32.8718C68.7202 32.8718 73.9185 33.0474 76.8315 30.1423C79.7606 27.2371 79.5352 24.747 79.5352 21.762C79.5192 18.761 79.7445 16.2549 76.8315 13.3657ZM70.4262 24.8427C70.4262 25.4174 70.1365 26.838 68.7042 26.838C67.2718 26.838 66.9821 25.4174 66.9821 24.8427V18.3939C66.9821 17.0052 68.157 16.654 68.7042 16.654C69.2513 16.654 70.4262 16.9892 70.4262 18.3939V24.8427ZM53.3346 13.3657C50.4056 10.4606 45.2234 10.6362 45.2234 10.6362C45.2234 10.6362 40.0412 10.4606 37.1121 13.3657C36.8063 13.669 36.5167 13.9883 36.2592 14.3235C30.1113 9.5986 24.5912 6.90094 19.8274 4.57043V1.2662L16.2063 2.95822C7.45135 -0.569481 1.88291 0.0530559 0.547129 2.97418C0.547129 2.97418 -3.46021 8.20986 10.4931 20.6606V32.4249H19.8113V27.8596C18.7653 27.1892 17.7192 26.4709 16.6892 25.6887C14.3073 23.9009 12.2795 22.2409 10.5092 20.6765V15.7282C12.6174 18.0747 15.4178 20.7404 19.1032 23.7573L19.8274 24.3319V19.5751C19.8274 18.4737 20.101 16.67 21.5656 16.67C23.0301 16.67 23.2715 17.7714 23.2715 19.0643V26.838C26.1684 28.7855 29.2745 30.3657 32.5576 31.5629V16.5742C32.5576 13.5892 30.401 10.6042 26.0235 10.6042C23.4807 10.5883 21.1149 11.9132 19.8274 14.1V5.4324C26.5707 8.76855 33.3301 12.8549 35.9051 14.7385C34.2635 17.069 34.4084 19.2239 34.4084 21.7141C34.4084 24.6991 34.1831 27.1892 37.1121 30.0944C40.0412 32.9995 45.2234 32.824 45.2234 32.824C45.2234 32.824 50.4217 32.9995 53.3346 30.0944C56.2637 27.1892 56.0223 24.6991 56.0223 21.7141C56.0223 18.761 56.2637 16.2549 53.3346 13.3657ZM10.4931 5.60799V15.7122C2.65541 7.01268 4.2326 3.58076 4.82807 3.08592C7.00072 1.2662 10.8632 1.80892 15.1924 3.42113L10.4931 5.60799ZM46.9454 24.8427C46.9454 25.4174 46.6557 26.838 45.2234 26.838C43.791 26.838 43.5013 25.4174 43.5013 24.8427V18.3939C43.5013 17.0052 44.6762 16.654 45.2234 16.654C45.7706 16.654 46.9454 16.9892 46.9454 18.3939V24.8427Z" fill="#737373"/>
</svg>
