<svg width="48" height="41" viewBox="0 0 48 41" fill="none" xmlns="http://www.w3.org/2000/svg">
<path d="M42.5886 8.52529H37.519V3.45567C37.519 2.55931 37.1629 1.69966 36.5291 1.06583C35.8952 0.432007 35.0356 0.0759277 34.1392 0.0759277H13.8608C12.9644 0.0759277 12.1047 0.432007 11.4709 1.06583C10.8371 1.69966 10.481 2.55931 10.481 3.45567V8.52529H5.41139C4.06684 8.52529 2.77736 9.05941 1.82662 10.0102C0.875886 10.9609 0.341766 12.2504 0.341766 13.5949V37.2531C0.341766 38.1495 0.697846 39.0092 1.33167 39.643C1.9655 40.2768 2.82515 40.6329 3.72151 40.6329H44.2785C45.1748 40.6329 46.0345 40.2768 46.6683 39.643C47.3021 39.0092 47.6582 38.1495 47.6582 37.2531V13.5949C47.6582 12.2504 47.1241 10.9609 46.1734 10.0102C45.2226 9.05941 43.9331 8.52529 42.5886 8.52529ZM13.8608 3.45567H34.1392V8.52529H13.8608V3.45567ZM44.2785 37.2531H3.72151V22.0443H17.2405V30.4936H30.7595V22.0443H44.2785V37.2531ZM20.6202 22.0443H27.3797V27.1139H20.6202V22.0443ZM3.72151 18.6645V13.5949C3.72151 13.1467 3.89955 12.7169 4.21647 12.4C4.53338 12.0831 4.9632 11.905 5.41139 11.905H42.5886C43.0368 11.905 43.4666 12.0831 43.7835 12.4C44.1004 12.7169 44.2785 13.1467 44.2785 13.5949V18.6645H3.72151Z" fill="#00A0C1"/>
</svg>
