<svg width="24" height="18" viewBox="0 0 24 18" fill="none" xmlns="http://www.w3.org/2000/svg">
<path d="M23.4699 2.93179C23.3335 2.39882 23.0663 1.91289 22.6951 1.52261C22.324 1.13234 21.8619 0.851413 21.355 0.707956C19.4884 0.176758 11.9879 0.176758 11.9879 0.176758C11.9879 0.176758 4.48729 0.176758 2.62071 0.707956C2.11385 0.851413 1.65172 1.13234 1.28057 1.52261C0.90941 1.91289 0.642248 2.39882 0.50582 2.93179C0.157288 4.93347 -0.0118455 6.96513 0.000644257 9.00005C-0.0118455 11.035 0.157288 13.0666 0.50582 15.0683C0.642248 15.6013 0.90941 16.0872 1.28057 16.4775C1.65172 16.8678 2.11385 17.1487 2.62071 17.2921C4.48729 17.8233 11.9879 17.8233 11.9879 17.8233C11.9879 17.8233 19.4884 17.8233 21.355 17.2921C21.8619 17.1487 22.324 16.8678 22.6951 16.4775C23.0663 16.0872 23.3335 15.6013 23.4699 15.0683C23.8184 13.0666 23.9876 11.035 23.9751 9.00005C23.9876 6.96513 23.8184 4.93347 23.4699 2.93179ZM9.59041 12.7815V5.21864L15.8152 9.00005L9.59041 12.7815Z" fill="#E42F08"/>
</svg>
