<svg width="77" height="73" viewBox="0 0 77 73" fill="none" xmlns="http://www.w3.org/2000/svg">
<path d="M67.926 28.1614C65.5311 28.1614 63.4235 29.1556 61.8748 30.7111C56.1748 26.7503 48.4949 24.2006 39.9848 23.928L44.4075 3.91556L58.4899 7.09061C58.4899 10.5543 61.3 13.3766 64.7487 13.3766C68.2613 13.3766 71.0874 10.4741 71.0874 7.01043C71.0874 3.54674 68.2773 0.644287 64.7487 0.644287C62.2899 0.644287 60.1664 2.1356 59.1126 4.17213L43.5613 0.70843C42.779 0.499966 42.0126 1.06121 41.805 1.84696L36.9512 23.912C28.505 24.2648 20.905 26.8144 15.1891 30.7752C13.6403 29.1556 11.4529 28.1614 9.05796 28.1614C0.180651 28.1614 -2.72523 40.124 5.40166 44.2131C5.11426 45.4799 4.98653 46.8269 4.98653 48.1739C4.98653 61.6118 20.0588 72.5 38.5638 72.5C57.1487 72.5 72.221 61.6118 72.221 48.1739C72.221 46.8269 72.0773 45.4158 71.726 44.149C79.6933 40.0438 76.7554 28.1614 67.926 28.1614ZM18.2865 45.063C18.2865 41.5351 21.0966 38.6968 24.6252 38.6968C28.0739 38.6968 30.884 41.5191 30.884 45.063C30.884 48.5267 28.0739 51.349 24.6252 51.349C21.1126 51.365 18.2865 48.5267 18.2865 45.063ZM52.5025 60.0563C46.6907 65.8933 30.2933 65.8933 24.4815 60.0563C23.8428 59.4951 23.8428 58.5008 24.4815 57.8594C25.0403 57.2982 26.0302 57.2982 26.5891 57.8594C31.0277 62.4296 45.7487 62.5098 50.379 57.8594C50.9378 57.2982 51.9277 57.2982 52.4865 57.8594C53.1412 58.5008 53.1412 59.4951 52.5025 60.0563ZM52.3748 51.365C48.926 51.365 46.1159 48.5427 46.1159 45.079C46.1159 41.5512 48.926 38.7129 52.3748 38.7129C55.8874 38.7129 58.7134 41.5351 58.7134 45.079C58.6975 48.5267 55.8874 51.365 52.3748 51.365Z" fill="#737373"/>
</svg>
